<svg width="24" height="24" viewBox="0 0 24 24" fill="none" xmlns="http://www.w3.org/2000/svg">
<path d="M19.4206 10.1474L19.4232 10.1484C19.6824 10.2545 19.9825 10.245 20.2272 10.0982C20.4655 9.95523 20.6327 9.70552 20.6687 9.42901C20.7295 8.97294 20.76 8.52645 20.76 8.0896C20.76 4.83744 18.1335 2.19961 14.9 2.19961C13.3999 2.19961 12.0049 2.75775 10.9304 3.75244C9.86407 2.75734 8.45944 2.19961 6.95999 2.19961C3.72647 2.19961 1.1 4.83744 1.1 8.0896C1.1 11.2262 2.48349 13.8507 4.29164 15.8344C6.09737 17.8154 8.33466 19.1667 10.0684 19.7605C10.3205 19.8585 10.6192 19.8996 10.92 19.8996C11.2306 19.8996 11.5334 19.8586 11.8079 19.7749C11.8826 19.7579 11.9871 19.7084 12.0918 19.6513L12.0919 19.6515L12.0989 19.6471C12.3483 19.4928 12.5054 19.2406 12.5295 18.9521C12.5533 18.6659 12.4456 18.3895 12.2297 18.1975L12.2292 18.197C10.9841 17.1002 9.53 15.2878 9.53 12.7496C9.53 11.1811 10.7941 9.90961 12.34 9.90961C13.2329 9.90961 14.0582 10.3174 14.5997 11.0392C14.7685 11.268 15.0335 11.3996 15.32 11.3996V11.3998L15.3279 11.3994C15.4432 11.3933 15.5767 11.3607 15.7014 11.3034C15.826 11.2461 15.9516 11.1596 16.0408 11.0386L15.92 10.9496L16.0401 11.0394C16.7981 10.0257 18.2535 9.64447 19.4206 10.1474ZM10.1989 5.63815L10.1992 5.63857C10.3681 5.8677 10.6333 5.99961 10.92 5.99961C11.2064 5.99961 11.4713 5.86801 11.6401 5.63941C12.4223 4.6066 13.6082 4.00959 14.89 4.00959C17.1262 4.00959 18.95 5.84153 18.95 8.09961V8.10002V8.10043V8.10084V8.10125V8.10166V8.10207V8.10249V8.1029V8.10331V8.10372V8.10414V8.10455V8.10496V8.10537V8.10579V8.1062V8.10661V8.10703V8.10744V8.10786V8.10827V8.10869V8.1091V8.10952V8.10993V8.11035V8.11077V8.11118V8.1116V8.11201V8.11243V8.11285V8.11327V8.11368V8.1141V8.11452V8.11494V8.11536V8.11577V8.11619V8.11661V8.11703V8.11745V8.11787V8.11829V8.11871V8.11913V8.11955V8.11997V8.12039V8.12081V8.12124V8.12166V8.12208V8.1225V8.12292V8.12335V8.12377V8.12419V8.12461V8.12504V8.12546V8.12588V8.12631V8.12673V8.12716V8.12758V8.12801V8.12843V8.12885V8.12928V8.1297V8.13013V8.13056V8.13098V8.13141V8.13183V8.13226V8.13269V8.13311V8.13354V8.13397V8.1344V8.13482V8.13525V8.13568V8.13611V8.13654V8.13697V8.13739V8.13782V8.13825V8.13868V8.13911V8.13954V8.13997V8.1404V8.14083V8.14126V8.14169V8.14212V8.14255V8.14299V8.14342V8.14385V8.14428V8.14471V8.14514V8.14558V8.14601V8.14644V8.14688V8.14731V8.14774V8.14817V8.14861V8.14904V8.14948V8.14991V8.15034V8.15078V8.15121V8.15165V8.15208V8.15252V8.15281C17.6597 7.96686 16.3029 8.3592 15.3106 9.19083C14.4876 8.4908 13.4417 8.0996 12.33 8.0996C9.78627 8.0996 7.72 10.1776 7.72 12.7396C7.72 14.5993 8.32652 16.1397 9.12261 17.3589C6.6041 15.9588 2.9 12.8718 2.9 8.0896C2.9 5.83152 4.72376 3.99961 6.95999 3.99961C8.25251 3.99961 9.4374 4.59706 10.1989 5.63815Z" fill="white" stroke="white" stroke-width="0.3"/>
<path d="M15.9201 10.94L16.0403 11.0298C16.7983 10.016 18.2735 9.63521 19.42 10.1374C20.4344 10.5831 21.1001 11.6085 21.1001 12.74C21.1001 14.9026 20.0588 16.5864 18.8226 17.7979C17.5846 19.0112 16.1618 19.7398 15.4318 19.988L15.4317 19.9876L15.421 19.9921C15.4223 19.9916 15.4132 19.995 15.3894 19.9981C15.368 20.0009 15.3418 20.0025 15.3139 20.0025C15.2526 20.0025 15.207 19.9949 15.1928 19.9896L15.1928 19.9894L15.187 19.9875C14.4778 19.7544 13.3254 19.1552 12.2294 18.1875L12.2293 18.1874C10.9843 17.0906 9.53013 15.2782 9.53013 12.74C9.53013 11.1715 10.7943 9.9 12.3401 9.9C13.233 9.9 14.0582 10.3078 14.5997 11.0295C14.7686 11.2583 15.0336 11.39 15.3201 11.39V11.3902L15.328 11.3898C15.4433 11.3837 15.5768 11.3511 15.7015 11.2938C15.8261 11.2365 15.9517 11.15 16.0409 11.029L15.9201 10.94ZM15.9201 10.94C15.7801 11.13 15.5101 11.23 15.3201 11.24L15.4801 20.13C16.9801 19.62 21.2501 17.17 21.2501 12.74C21.2501 11.55 20.5501 10.47 19.4801 10C18.2701 9.47 16.7201 9.87 15.9201 10.94ZM20.151 8.49293L20.1502 8.49254C18.5576 7.79707 16.634 8.09314 15.3305 9.19099C14.5074 8.49111 13.4618 8.1 12.3501 8.1C9.80641 8.1 7.74014 10.178 7.74014 12.74C7.74014 15.9508 9.54488 18.2083 11.0407 19.5323C12.325 20.675 13.7314 21.3948 14.6103 21.6915C14.8222 21.7692 15.0805 21.8 15.3201 21.8C15.5623 21.8 15.8071 21.7685 16.0232 21.7037L16.0233 21.7038L16.0284 21.702C17.3626 21.2488 19.079 20.2171 20.4634 18.6999C21.8493 17.181 22.9101 15.1665 22.9101 12.75C22.9101 10.911 21.8255 9.23713 20.151 8.49293Z" fill="white" stroke="white" stroke-width="0.3"/>
</svg>
