<svg width="24" height="24" viewBox="0 0 24 24" fill="none" xmlns="http://www.w3.org/2000/svg">
<path d="M9 1V3.08579L11 5.08579V8H9V5.91421L7 3.91421V1H9Z" fill="#747474"/>
<path d="M15 1V3.08579L17 5.08579V8H15V5.91421L13 3.91421V1H15Z" fill="#747474"/>
<path fill-rule="evenodd" clip-rule="evenodd" d="M1 9H23V15C23 18.7226 20.0942 21.7665 16.427 21.9872L15.4142 23H8.58579L7.57297 21.9872C3.90584 21.7665 1 18.7226 1 15V9ZM3 11V15C3 17.7614 5.23858 20 8 20H8.41421L9.41421 21H14.5858L15.5858 20H16C18.7614 20 21 17.7614 21 15V11H3Z" fill="#747474"/>
</svg>
