<svg width="24" height="24" viewBox="0 0 24 24" fill="none" xmlns="http://www.w3.org/2000/svg">
<path fill-rule="evenodd" clip-rule="evenodd" d="M16.9335 0.519592L18.1401 1.72618C18.7696 2.35563 19.2732 3.09937 19.624 3.91752L19.7615 4.23844L20.0818 4.37573C20.9002 4.72652 21.6441 5.23022 22.2737 5.85982L23.4814 7.06743L21.7862 8.47926C20.8988 9.21834 19.802 9.55667 18.7239 9.50464C19.2894 11.9147 18.2425 14.5814 15.8342 15.8489L2.46578 22.8849L1.11511 21.5343L8.15112 8.16585C9.41837 5.75808 12.0842 4.7111 14.4939 5.27581C14.4415 4.19505 14.7813 3.09554 15.5237 2.20699L16.9335 0.519592ZM17.2262 6.81204C17.2199 6.80565 17.2135 6.79927 17.2071 6.79291C17.2004 6.78618 17.1937 6.77947 17.1869 6.77278C16.3113 5.87767 16.2516 4.46448 17.0509 3.49847C17.3513 3.86341 17.5989 4.26974 17.7858 4.70564L18.2385 5.76159L19.2939 6.21397C19.7293 6.40061 20.1352 6.64786 20.4999 6.94774C19.5338 7.74688 18.1211 7.68702 17.2262 6.81204ZM15.7711 8.18546C14.1149 6.55552 11.4157 6.86128 10.1427 8.72843L11.9142 10.5L10.5 11.9142L9.1493 10.5635L4.38569 19.6144L9.50551 16.9197L8.08582 15.5L9.50003 14.0858L11.3586 15.9444L14.9027 14.0791C17.0932 12.9262 17.5467 9.98808 15.8139 8.22824C15.8066 8.22102 15.7993 8.21378 15.792 8.2065C15.785 8.19951 15.778 8.1925 15.7711 8.18546Z" fill="#747474"/>
</svg>
