<svg width="24" height="24" viewBox="0 0 24 24" fill="none" xmlns="http://www.w3.org/2000/svg">
<path d="M5.67999 22.75C5.54999 22.75 5.41999 22.72 5.29999 22.65C5.06999 22.52 4.92999 22.27 4.92999 22V18.8C2.57999 16.89 1.25 14.17 1.25 11.26C1.25 5.74001 6.07 1.25 12 1.25C17.93 1.25 22.75 5.74001 22.75 11.26C22.75 16.78 17.93 21.27 12 21.27C11.03 21.27 10.07 21.15 9.14001 20.91L6.04999 22.65C5.93999 22.72 5.80999 22.75 5.67999 22.75ZM12 2.75C6.9 2.75 2.75 6.57001 2.75 11.26C2.75 13.82 3.98001 16.22 6.14001 17.84C6.33001 17.98 6.44 18.2 6.44 18.44V20.72L8.67999 19.46C8.84999 19.36 9.06 19.34 9.25 19.39C10.14 19.64 11.07 19.77 12 19.77C17.1 19.77 21.25 15.95 21.25 11.26C21.25 6.57001 17.1 2.75 12 2.75Z" fill="white"/>
</svg>
