<svg width="28" height="28" viewBox="0 0 28 28" fill="none" xmlns="http://www.w3.org/2000/svg">
<path d="M6.16937 24.6094C5.45771 24.6094 4.79271 24.3644 4.31437 23.9094C3.70771 23.3377 3.41604 22.4744 3.52104 21.5411L3.95271 17.7611C4.03437 17.0494 4.46604 16.1044 4.96771 15.5911L14.546 5.45274C16.9377 2.92108 19.4344 2.85108 21.966 5.24274C24.4977 7.63441 24.5677 10.1311 22.176 12.6627L12.5977 22.8011C12.1077 23.3261 11.1977 23.8161 10.486 23.9327L6.72937 24.5744C6.53104 24.5861 6.35604 24.6094 6.16937 24.6094ZM18.291 5.23108C17.3927 5.23108 16.611 5.79108 15.8177 6.63108L6.23937 16.7811C6.00604 17.0261 5.73771 17.6094 5.69104 17.9477L5.25937 21.7277C5.21271 22.1127 5.30604 22.4277 5.51604 22.6261C5.72604 22.8244 6.04104 22.8944 6.42604 22.8361L10.1827 22.1944C10.521 22.1361 11.081 21.8327 11.3144 21.5877L20.8927 11.4494C22.3394 9.90941 22.8644 8.48608 20.7527 6.50274C19.8194 5.60441 19.0144 5.23108 18.291 5.23108Z" fill="white"/>
<path d="M19.936 14.6111C19.9127 14.6111 19.8777 14.6111 19.8543 14.6111C16.2143 14.2494 13.286 11.4844 12.726 7.86775C12.656 7.38942 12.9827 6.94609 13.461 6.86442C13.9393 6.79442 14.3827 7.12109 14.4643 7.59942C14.9077 10.4228 17.1943 12.5928 20.041 12.8728C20.5193 12.9194 20.8693 13.3511 20.8227 13.8294C20.7643 14.2728 20.3793 14.6111 19.936 14.6111Z" fill="white"/>
</svg>
