<svg width="12" height="12" viewBox="0 0 12 12" fill="none" xmlns="http://www.w3.org/2000/svg">
<path d="M6.00002 8.16501C4.80502 8.16501 3.83502 7.19501 3.83502 6.00001C3.83502 4.80501 4.80502 3.83501 6.00002 3.83501C7.19502 3.83501 8.16502 4.80501 8.16502 6.00001C8.16502 7.19501 7.19502 8.16501 6.00002 8.16501ZM6.00002 4.58501C5.22002 4.58501 4.58502 5.22001 4.58502 6.00001C4.58502 6.78001 5.22002 7.41501 6.00002 7.41501C6.78002 7.41501 7.41502 6.78001 7.41502 6.00001C7.41502 5.22001 6.78002 4.58501 6.00002 4.58501Z" fill="#FF0084"/>
<path d="M5.99998 10.51C4.11998 10.51 2.34498 9.41001 1.12498 7.50001C0.594978 6.67501 0.594978 5.33001 1.12498 4.50001C2.34998 2.59001 4.12498 1.49001 5.99998 1.49001C7.87498 1.49001 9.64998 2.59001 10.87 4.50001C11.4 5.32501 11.4 6.67001 10.87 7.50001C9.64998 9.41001 7.87498 10.51 5.99998 10.51ZM5.99998 2.24001C4.38498 2.24001 2.83998 3.21001 1.75998 4.90501C1.38498 5.49001 1.38498 6.51001 1.75998 7.09501C2.83998 8.79001 4.38498 9.76001 5.99998 9.76001C7.61498 9.76001 9.15998 8.79001 10.24 7.09501C10.615 6.51001 10.615 5.49001 10.24 4.90501C9.15998 3.21001 7.61498 2.24001 5.99998 2.24001Z" fill="#FF0084"/>
</svg>
