<svg width="24" height="24" viewBox="0 0 24 24" fill="none" xmlns="http://www.w3.org/2000/svg">
<g clip-path="url(#clip0_219_3825)">
<path d="M16 11H18.01V13H16V11Z" fill="#747474"/>
<path fill-rule="evenodd" clip-rule="evenodd" d="M5.67214 15.8841L-0.0650024 19.4699L2.92294 12L-0.0650024 4.53014L5.67214 8.11586C7.38435 5.63117 10.2511 4 13.5 4C18.1757 4 22.0606 7.3769 22.8526 11.8247L22.8838 12L22.8526 12.1753C22.0606 16.6231 18.1757 20 13.5 20C10.2511 20 7.38435 18.3688 5.67214 15.8841ZM6.35421 10.82L6.41006 10.8499L6.85266 10.0225L7.37797 9.182L7.37019 9.17714C8.72922 7.25364 10.9688 6 13.5 6C17.1278 6 20.1558 8.57672 20.8501 12C20.1558 15.4233 17.1278 18 13.5 18C10.9688 18 8.72922 16.7464 7.37019 14.8229L7.37797 14.818L6.85266 13.9775L6.41006 13.1501L6.35421 13.18L6.31797 13.122L5.45913 13.6588L4.64652 14.0935L4.67587 14.1483L4.06495 14.5301L5.07701 12L4.06495 9.46986L4.67587 9.85168L4.64652 9.90654L5.45914 10.3412L6.31797 10.878L6.35421 10.82Z" fill="#747474"/>
</g>
<defs>
<clipPath id="clip0_219_3825">
<rect width="24" height="24" fill="white"/>
</clipPath>
</defs>
</svg>
