<svg width="120" height="24" viewBox="0 0 120 24" fill="none" xmlns="http://www.w3.org/2000/svg">
<path d="M10.976 0.567999H15.808C17.12 0.567999 17.952 0.471998 18.496 0.375999C19.04 0.279999 19.296 0.183998 19.424 0.183998C21.344 0.183998 22.464 3.416 22.464 4.952C22.464 6.36 21.856 7.608 20.288 7.608C17.856 7.608 19.04 4.248 15.744 4.248C12.864 4.248 12.768 4.632 12.608 5.816C12.448 6.648 12.096 8.696 12.096 9.496C12.096 9.912 12.416 9.88 12.768 9.88C14.912 9.88 13.568 6.968 15.936 6.968C17.568 6.968 17.92 9.144 17.92 10.392C17.92 12.184 17.664 16.92 15.072 16.92C12.704 16.92 14.496 13.56 12.704 13.56C12.096 13.56 11.488 13.464 11.488 18.36C11.488 20.376 13.696 19.32 13.696 20.952C13.696 23.384 8.896 23.256 7.264 23.256C2.304 23.256 0.64 22.808 0.64 20.984C0.64 19.192 2.4 20.12 2.976 18.552C3.904 16.344 4.96 8.44 4.96 5.944C4.96 3.16 2.816 4.792 2.816 2.552C2.816 0.792 4.704 0.439999 6.112 0.439999C8.704 0.439999 9.824 0.567999 10.976 0.567999ZM40.6815 9.592L39.5935 15.768C39.4975 16.248 39.4015 16.76 39.4015 17.24C39.4015 17.944 39.7535 18.2 40.3935 18.2C41.1295 18.232 41.5135 18.2 41.5135 19.064C41.5135 21.528 36.1695 23.224 34.2175 23.224C32.1695 23.224 33.1295 20.376 32.0095 20.376C31.3055 20.376 28.5855 23.352 25.2575 23.224C23.4655 23.16 22.4735 22.008 22.4095 19.928C22.3455 18.136 23.0815 15.512 23.3375 13.304C23.4335 12.472 23.6575 11.736 22.6015 11.608C21.9615 11.544 21.2575 11.448 21.2575 10.616C21.2575 9.336 23.0495 8.408 24.0095 7.96C25.5775 7.224 27.4335 6.648 29.1615 6.648C30.3775 6.648 30.7935 7.288 30.7935 8.472C30.7935 9.72 30.1535 12.76 29.8655 14.424C29.8015 14.84 29.0015 18.008 30.3775 18.008C31.4015 18.008 32.1375 16.728 32.4895 15.96C33.8015 12.952 33.1935 8.92 34.6335 7.736C35.5295 6.936 37.8015 6.616 38.9855 6.616C39.9775 6.616 40.8415 6.904 40.8415 7.992C40.8415 8.408 40.7135 9.176 40.6815 9.592ZM51.6467 1.656L49.9507 17.144C49.9507 17.528 49.9827 18.264 50.4947 18.264C50.8147 18.264 51.1347 18.168 51.4547 18.168C51.9987 18.168 52.1587 18.712 52.1587 19.16C52.1587 21.816 46.9427 23.224 44.8627 23.224C43.1347 23.224 42.0787 22.424 42.2707 20.12C42.7187 14.936 43.7107 9.048 44.1267 5.304C44.1907 4.792 44.0627 4.536 43.5187 4.536C43.2627 4.536 43.0067 4.6 42.7507 4.6C42.1107 4.6 41.7587 4.312 41.7587 3.672C41.7587 2.072 43.2307 1.56 44.5107 1.144C46.0787 0.631998 48.1907 0.119999 49.8227 0.119999C50.9427 0.119999 51.6467 0.407999 51.6467 1.656ZM62.398 1.656L60.702 17.144C60.702 17.528 60.734 18.264 61.246 18.264C61.566 18.264 61.886 18.168 62.206 18.168C62.75 18.168 62.91 18.712 62.91 19.16C62.91 21.816 57.694 23.224 55.614 23.224C53.886 23.224 52.83 22.424 53.022 20.12C53.47 14.936 54.462 9.048 54.878 5.304C54.942 4.792 54.814 4.536 54.27 4.536C54.014 4.536 53.758 4.6 53.502 4.6C52.862 4.6 52.51 4.312 52.51 3.672C52.51 2.072 53.982 1.56 55.262 1.144C56.83 0.631998 58.942 0.119999 60.574 0.119999C61.694 0.119999 62.398 0.407999 62.398 1.656ZM70.3333 23.416C66.3333 23.416 63.0373 21.272 63.0373 17.08C63.0373 10.968 67.8373 6.456 73.9173 6.456C77.9173 6.456 81.2133 8.6 81.2133 12.792C81.2133 18.904 76.4133 23.416 70.3333 23.416ZM72.8613 9.848C71.5173 9.848 71.1973 11.896 70.9733 12.888C70.6213 14.616 70.3333 16.792 70.3333 18.552C70.3333 19.288 70.5253 20.024 71.3573 20.024C72.7013 20.024 72.9573 18.104 73.1493 17.144C73.4693 15.512 73.9173 13.048 73.9173 11.416C73.9173 10.68 73.7573 9.848 72.8613 9.848ZM88.6157 23.416C84.6157 23.416 81.3197 21.272 81.3197 17.08C81.3197 10.968 86.1197 6.456 92.1997 6.456C96.1997 6.456 99.4957 8.6 99.4957 12.792C99.4957 18.904 94.6957 23.416 88.6157 23.416ZM91.1437 9.848C89.7997 9.848 89.4797 11.896 89.2557 12.888C88.9037 14.616 88.6157 16.792 88.6157 18.552C88.6157 19.288 88.8077 20.024 89.6397 20.024C90.9837 20.024 91.2397 18.104 91.4317 17.144C91.7517 15.512 92.1997 13.048 92.1997 11.416C92.1997 10.68 92.0397 9.848 91.1437 9.848ZM111.41 15.704L111.794 12.856C111.794 12.28 111.506 11.832 110.898 11.832C108.562 11.832 108.146 16.696 107.954 18.648C107.634 22.168 106.93 23 102.802 23.224C101.65 23.288 100.466 22.968 100.466 21.56C100.466 19.96 101.938 15.16 101.842 12.376C101.842 11.736 101.618 11.352 100.946 11.352H100.626C99.9862 11.352 99.7302 10.968 99.7302 10.328C99.7302 9.432 100.658 8.792 101.362 8.408C102.706 7.608 105.65 6.648 107.186 6.648C109.138 6.648 108.274 9.464 109.266 9.464C110.066 9.464 112.69 6.616 115.474 6.616C117.33 6.616 119.122 7.704 119.122 9.72C119.122 11.992 118.002 15.832 118.002 17.784C118.002 19.064 119.538 18.264 119.538 19.512C119.538 21.848 114.706 23.224 112.882 23.224C111.474 23.224 110.578 22.52 110.578 21.08C110.578 19.448 111.154 17.368 111.41 15.704Z" fill="#FF0085"/>
</svg>
