<svg width="98" height="20" viewBox="0 0 98 20" fill="none" xmlns="http://www.w3.org/2000/svg">
<path d="M8.918 0.773999H12.844C13.91 0.773999 14.586 0.695999 15.028 0.618C15.47 0.539999 15.678 0.461998 15.782 0.461998C17.342 0.461998 18.252 3.088 18.252 4.336C18.252 5.48 17.758 6.494 16.484 6.494C14.508 6.494 15.47 3.764 12.792 3.764C10.452 3.764 10.374 4.076 10.244 5.038C10.114 5.714 9.828 7.378 9.828 8.028C9.828 8.366 10.088 8.34 10.374 8.34C12.116 8.34 11.024 5.974 12.948 5.974C14.274 5.974 14.56 7.742 14.56 8.756C14.56 10.212 14.352 14.06 12.246 14.06C10.322 14.06 11.778 11.33 10.322 11.33C9.828 11.33 9.334 11.252 9.334 15.23C9.334 16.868 11.128 16.01 11.128 17.336C11.128 19.312 7.228 19.208 5.902 19.208C1.872 19.208 0.52 18.844 0.52 17.362C0.52 15.906 1.95 16.66 2.418 15.386C3.172 13.592 4.03 7.17 4.03 5.142C4.03 2.88 2.288 4.206 2.288 2.386C2.288 0.956 3.822 0.669999 4.966 0.669999C7.072 0.669999 7.982 0.773999 8.918 0.773999ZM33.0537 8.106L32.1697 13.124C32.0917 13.514 32.0137 13.93 32.0137 14.32C32.0137 14.892 32.2997 15.1 32.8197 15.1C33.4177 15.126 33.7297 15.1 33.7297 15.802C33.7297 17.804 29.3877 19.182 27.8017 19.182C26.1377 19.182 26.9177 16.868 26.0077 16.868C25.4357 16.868 23.2257 19.286 20.5217 19.182C19.0657 19.13 18.2597 18.194 18.2077 16.504C18.1557 15.048 18.7537 12.916 18.9617 11.122C19.0397 10.446 19.2217 9.848 18.3637 9.744C17.8437 9.692 17.2717 9.614 17.2717 8.938C17.2717 7.898 18.7277 7.144 19.5077 6.78C20.7817 6.182 22.2897 5.714 23.6937 5.714C24.6817 5.714 25.0197 6.234 25.0197 7.196C25.0197 8.21 24.4997 10.68 24.2657 12.032C24.2137 12.37 23.5637 14.944 24.6817 14.944C25.5137 14.944 26.1117 13.904 26.3977 13.28C27.4637 10.836 26.9697 7.56 28.1397 6.598C28.8677 5.948 30.7137 5.688 31.6757 5.688C32.4817 5.688 33.1837 5.922 33.1837 6.806C33.1837 7.144 33.0797 7.768 33.0537 8.106ZM41.963 1.658L40.585 14.242C40.585 14.554 40.611 15.152 41.027 15.152C41.287 15.152 41.547 15.074 41.807 15.074C42.249 15.074 42.379 15.516 42.379 15.88C42.379 18.038 38.141 19.182 36.451 19.182C35.047 19.182 34.189 18.532 34.345 16.66C34.709 12.448 35.515 7.664 35.853 4.622C35.905 4.206 35.801 3.998 35.359 3.998C35.151 3.998 34.943 4.05 34.735 4.05C34.215 4.05 33.929 3.816 33.929 3.296C33.929 1.996 35.125 1.58 36.165 1.242C37.439 0.825998 39.155 0.409999 40.481 0.409999C41.391 0.409999 41.963 0.643999 41.963 1.658ZM50.6984 1.658L49.3204 14.242C49.3204 14.554 49.3464 15.152 49.7624 15.152C50.0224 15.152 50.2824 15.074 50.5424 15.074C50.9844 15.074 51.1144 15.516 51.1144 15.88C51.1144 18.038 46.8764 19.182 45.1864 19.182C43.7824 19.182 42.9244 18.532 43.0804 16.66C43.4444 12.448 44.2504 7.664 44.5884 4.622C44.6404 4.206 44.5364 3.998 44.0944 3.998C43.8864 3.998 43.6784 4.05 43.4704 4.05C42.9504 4.05 42.6644 3.816 42.6644 3.296C42.6644 1.996 43.8604 1.58 44.9004 1.242C46.1744 0.825998 47.8904 0.409999 49.2164 0.409999C50.1264 0.409999 50.6984 0.643999 50.6984 1.658ZM57.1458 19.338C53.8958 19.338 51.2178 17.596 51.2178 14.19C51.2178 9.224 55.1178 5.558 60.0578 5.558C63.3078 5.558 65.9858 7.3 65.9858 10.706C65.9858 15.672 62.0858 19.338 57.1458 19.338ZM59.1998 8.314C58.1078 8.314 57.8478 9.978 57.6658 10.784C57.3798 12.188 57.1458 13.956 57.1458 15.386C57.1458 15.984 57.3018 16.582 57.9778 16.582C59.0698 16.582 59.2778 15.022 59.4338 14.242C59.6938 12.916 60.0578 10.914 60.0578 9.588C60.0578 8.99 59.9278 8.314 59.1998 8.314ZM72.0003 19.338C68.7503 19.338 66.0723 17.596 66.0723 14.19C66.0723 9.224 69.9723 5.558 74.9123 5.558C78.1623 5.558 80.8403 7.3 80.8403 10.706C80.8403 15.672 76.9403 19.338 72.0003 19.338ZM74.0543 8.314C72.9623 8.314 72.7023 9.978 72.5203 10.784C72.2343 12.188 72.0003 13.956 72.0003 15.386C72.0003 15.984 72.1563 16.582 72.8323 16.582C73.9243 16.582 74.1323 15.022 74.2883 14.242C74.5483 12.916 74.9123 10.914 74.9123 9.588C74.9123 8.99 74.7823 8.314 74.0543 8.314ZM90.5208 13.072L90.8328 10.758C90.8328 10.29 90.5988 9.926 90.1048 9.926C88.2068 9.926 87.8688 13.878 87.7128 15.464C87.4528 18.324 86.8808 19 83.5268 19.182C82.5908 19.234 81.6288 18.974 81.6288 17.83C81.6288 16.53 82.8248 12.63 82.7468 10.368C82.7468 9.848 82.5648 9.536 82.0188 9.536H81.7588C81.2388 9.536 81.0308 9.224 81.0308 8.704C81.0308 7.976 81.7848 7.456 82.3568 7.144C83.4488 6.494 85.8408 5.714 87.0888 5.714C88.6748 5.714 87.9728 8.002 88.7788 8.002C89.4288 8.002 91.5608 5.688 93.8228 5.688C95.3308 5.688 96.7868 6.572 96.7868 8.21C96.7868 10.056 95.8768 13.176 95.8768 14.762C95.8768 15.802 97.1248 15.152 97.1248 16.166C97.1248 18.064 93.1988 19.182 91.7168 19.182C90.5728 19.182 89.8448 18.61 89.8448 17.44C89.8448 16.114 90.3128 14.424 90.5208 13.072Z" fill="#01994A"/>
</svg>
