<svg width="20" height="20" viewBox="0 0 20 20" fill="none" xmlns="http://www.w3.org/2000/svg">
<g clip-path="url(#clip0_219_4029)">
<path fill-rule="evenodd" clip-rule="evenodd" d="M0.833374 8.33334C0.833374 4.19121 4.19124 0.833344 8.33337 0.833344C12.4755 0.833344 15.8334 4.19121 15.8334 8.33334C15.8334 10.1042 15.2196 11.7317 14.1933 13.0147L19.5119 18.3333L18.3334 19.5119L13.0148 14.1933C11.7317 15.2196 10.1042 15.8333 8.33337 15.8333C4.19124 15.8333 0.833374 12.4755 0.833374 8.33334ZM8.33337 2.50001C5.11171 2.50001 2.50004 5.11168 2.50004 8.33334C2.50004 11.555 5.11171 14.1667 8.33337 14.1667C11.555 14.1667 14.1667 11.555 14.1667 8.33334C14.1667 5.11168 11.555 2.50001 8.33337 2.50001Z" fill="#121212"/>
</g>
<defs>
<clipPath id="clip0_219_4029">
<rect width="20" height="20" fill="white"/>
</clipPath>
</defs>
</svg>
