<svg width="24" height="24" viewBox="0 0 24 24" fill="none" xmlns="http://www.w3.org/2000/svg">
<path fill-rule="evenodd" clip-rule="evenodd" d="M6 7C6 3.68629 8.68629 1 12 1C15.3137 1 18 3.68629 18 7H20L21 8V13L20 14H16.677L12.9285 23.3714H11.0715L7.32297 14H4L3 13V8L4 7H6ZM12 3C9.79086 3 8 4.79086 8 7C8 7.27528 8.02766 7.54307 8.08003 7.80107L8.3234 9H5V12H19V9H15.6766L15.92 7.80107C15.9723 7.54306 16 7.27528 16 7C16 4.79086 14.2091 3 12 3ZM9.47703 14L12 20.3074L14.523 14H9.47703Z" fill="#747474"/>
</svg>
