<svg width="24" height="24" viewBox="0 0 24 24" fill="none" xmlns="http://www.w3.org/2000/svg">
<path d="M19.4206 10.1478L19.4232 10.1488C19.6824 10.2548 19.9825 10.2454 20.2272 10.0986C20.4655 9.95559 20.6327 9.70588 20.6687 9.42937C20.7295 8.97331 20.76 8.52682 20.76 8.08997C20.76 4.83781 18.1335 2.19998 14.9 2.19998C13.3999 2.19998 12.0049 2.75811 10.9304 3.75281C9.86407 2.75771 8.45944 2.19998 6.95999 2.19998C3.72647 2.19998 1.1 4.83781 1.1 8.08997C1.1 11.2266 2.48349 13.8511 4.29164 15.8348C6.09737 17.8158 8.33466 19.167 10.0684 19.7609C10.3205 19.8589 10.6192 19.9 10.92 19.9C11.2306 19.9 11.5334 19.8589 11.8079 19.7752C11.8826 19.7582 11.9871 19.7087 12.0918 19.6516L12.0919 19.6518L12.0989 19.6475C12.3483 19.4931 12.5054 19.241 12.5295 18.9524C12.5533 18.6663 12.4456 18.3898 12.2297 18.1979L12.2292 18.1974C10.9841 17.1006 9.53 15.2882 9.53 12.75C9.53 11.1815 10.7941 9.90998 12.34 9.90998C13.2329 9.90998 14.0582 10.3178 14.5997 11.0395C14.7685 11.2683 15.0335 11.4 15.32 11.4V11.4002L15.3279 11.3998C15.4432 11.3937 15.5767 11.3611 15.7014 11.3038C15.826 11.2465 15.9516 11.16 16.0408 11.039L15.92 10.95L16.0401 11.0398C16.7981 10.0261 18.2535 9.64483 19.4206 10.1478ZM10.1989 5.63852L10.1992 5.63894C10.3681 5.86806 10.6333 5.99998 10.92 5.99998C11.2064 5.99998 11.4713 5.86838 11.6401 5.63978C12.4223 4.60696 13.6082 4.00995 14.89 4.00995C17.1262 4.00995 18.95 5.84189 18.95 8.09998V8.10039V8.1008V8.10121V8.10162V8.10203V8.10244V8.10285V8.10326V8.10368V8.10409V8.1045V8.10491V8.10533V8.10574V8.10615V8.10657V8.10698V8.1074V8.10781V8.10822V8.10864V8.10905V8.10947V8.10988V8.1103V8.11072V8.11113V8.11155V8.11196V8.11238V8.1128V8.11321V8.11363V8.11405V8.11447V8.11489V8.1153V8.11572V8.11614V8.11656V8.11698V8.1174V8.11782V8.11824V8.11866V8.11908V8.1195V8.11992V8.12034V8.12076V8.12118V8.1216V8.12202V8.12245V8.12287V8.12329V8.12371V8.12413V8.12456V8.12498V8.1254V8.12583V8.12625V8.12667V8.1271V8.12752V8.12795V8.12837V8.1288V8.12922V8.12965V8.13007V8.1305V8.13092V8.13135V8.13177V8.1322V8.13263V8.13305V8.13348V8.13391V8.13434V8.13476V8.13519V8.13562V8.13605V8.13648V8.1369V8.13733V8.13776V8.13819V8.13862V8.13905V8.13948V8.13991V8.14034V8.14077V8.1412V8.14163V8.14206V8.14249V8.14292V8.14335V8.14378V8.14422V8.14465V8.14508V8.14551V8.14594V8.14638V8.14681V8.14724V8.14767V8.14811V8.14854V8.14897V8.14941V8.14984V8.15028V8.15071V8.15115V8.15158V8.15201V8.15245V8.15288V8.15317C17.6597 7.96722 16.3029 8.35957 15.3106 9.1912C14.4876 8.49116 13.4417 8.09997 12.33 8.09997C9.78627 8.09997 7.72 10.178 7.72 12.74C7.72 14.5997 8.32652 16.14 9.12261 17.3593C6.6041 15.9591 2.9 12.8721 2.9 8.08997C2.9 5.83188 4.72376 3.99998 6.95999 3.99998C8.25251 3.99998 9.4374 4.59743 10.1989 5.63852Z" fill="#747474" stroke="#747474" stroke-width="0.3"/>
<path d="M15.9201 10.94L16.0403 11.0298C16.7983 10.016 18.2735 9.63521 19.42 10.1374C20.4344 10.5831 21.1001 11.6085 21.1001 12.74C21.1001 14.9026 20.0588 16.5864 18.8226 17.7979C17.5846 19.0112 16.1618 19.7398 15.4318 19.988L15.4317 19.9876L15.421 19.9921C15.4213 19.992 15.4212 19.9921 15.4207 19.9922C15.4186 19.9928 15.409 19.9956 15.3894 19.9981C15.368 20.0009 15.3418 20.0025 15.3139 20.0025C15.2526 20.0025 15.207 19.9949 15.1928 19.9896L15.1928 19.9894L15.187 19.9875C14.4778 19.7544 13.3254 19.1552 12.2294 18.1875L12.2293 18.1874C10.9843 17.0906 9.53013 15.2782 9.53013 12.74C9.53013 11.1715 10.7943 9.9 12.3401 9.9C13.233 9.9 14.0582 10.3078 14.5998 11.0295C14.7686 11.2583 15.0336 11.39 15.3201 11.39V11.3902L15.328 11.3898C15.4433 11.3837 15.5768 11.3511 15.7015 11.2938C15.8261 11.2365 15.9517 11.15 16.0409 11.029L15.9201 10.94ZM15.9201 10.94C15.7801 11.13 15.5101 11.23 15.3201 11.24L15.4801 20.13C16.9801 19.62 21.2501 17.17 21.2501 12.74C21.2501 11.55 20.5501 10.47 19.4801 10C18.2701 9.47 16.7201 9.87 15.9201 10.94ZM20.151 8.49293L20.1502 8.49254C18.5576 7.79707 16.634 8.09314 15.3305 9.19099C14.5074 8.49111 13.4618 8.1 12.3501 8.1C9.80641 8.1 7.74014 10.178 7.74014 12.74C7.74014 15.9508 9.54488 18.2083 11.0407 19.5323C12.325 20.675 13.7315 21.3948 14.6103 21.6915C14.8222 21.7692 15.0805 21.8 15.3201 21.8C15.5623 21.8 15.8071 21.7685 16.0232 21.7037L16.0233 21.7038L16.0284 21.702C17.3626 21.2488 19.079 20.2171 20.4634 18.6999C21.8493 17.181 22.9101 15.1665 22.9101 12.75C22.9101 10.911 21.8255 9.23713 20.151 8.49293Z" fill="#747474" stroke="#747474" stroke-width="0.3"/>
</svg>
