<svg width="24" height="32" viewBox="0 0 24 32" fill="none" xmlns="http://www.w3.org/2000/svg">
<path d="M20.5192 10.3333H2.98077C2.58128 10.3333 2.25 9.88001 2.25 9.33334C2.25 8.78668 2.58128 8.33334 2.98077 8.33334H20.5192C20.9187 8.33334 21.25 8.78668 21.25 9.33334C21.25 9.88001 20.9187 10.3333 20.5192 10.3333Z" fill="#747474"/>
<path d="M20.5192 17H2.98077C2.58128 17 2.25 16.5467 2.25 16C2.25 15.4533 2.58128 15 2.98077 15H20.5192C20.9187 15 21.25 15.4533 21.25 16C21.25 16.5467 20.9187 17 20.5192 17Z" fill="#747474"/>
<path d="M20.5192 23.6667H2.98077C2.58128 23.6667 2.25 23.2133 2.25 22.6667C2.25 22.12 2.58128 21.6667 2.98077 21.6667H20.5192C20.9187 21.6667 21.25 22.12 21.25 22.6667C21.25 23.2133 20.9187 23.6667 20.5192 23.6667Z" fill="#747474"/>
</svg>
