<svg width="40" height="25" viewBox="0 0 40 25" fill="none" xmlns="http://www.w3.org/2000/svg">
<path d="M14.872 11.772L12.844 14.996C12.454 15.62 11.648 16.946 10.816 16.946C9.932 16.946 9.724 16.062 9.49 15.386L8.45 12.24C8.398 12.058 7.904 10.342 7.592 10.342C7.254 10.342 7.15 11.148 7.098 11.33C7.046 11.59 6.344 14.788 6.344 15.594C6.344 16.738 7.618 16.53 7.618 17.544C7.618 18.402 7.28 19.208 3.25 19.208C2.158 19.208 0 19.182 0 17.648C0 15.88 1.456 16.92 2.028 15.36C3.198 12.24 4.498 8.106 4.55 5.194C4.576 3.192 2.392 4.258 2.392 2.646C2.392 2.126 2.678 0.565999 7.878 0.565999C9.984 0.565999 10.374 1.008 11.154 2.854C11.856 4.492 12.558 8.028 13.26 8.028C14.092 8.028 16.406 3.348 16.744 2.75C17.836 0.773999 18.902 0.565999 21.034 0.565999C22.23 0.565999 24.908 0.592 24.908 2.308C24.908 4.336 22.958 2.568 22.594 5.584C22.36 8.626 21.996 11.72 21.996 14.788C21.996 16.504 23.452 16.244 23.452 17.258C23.452 18.74 21.216 19.208 17.706 19.208C16.536 19.208 13.806 19.182 13.806 17.492C13.806 16.218 15.236 16.556 15.548 15.802C15.964 14.762 16.38 11.902 16.38 10.732C16.38 10.55 16.406 10.212 16.12 10.212C15.782 10.212 15.054 11.486 14.872 11.772ZM39.3088 9.302C39.4127 14.918 35.0187 24.044 28.3107 24.044C25.9967 24.044 23.6567 22.77 23.6567 20.222C23.6567 18.636 24.7747 17.622 26.3087 17.622C27.5567 17.622 28.5187 18.324 28.5187 19.624C28.5187 20.066 28.4147 20.508 28.4147 20.95C28.4147 21.236 28.5187 21.47 28.8307 21.47C29.6627 21.47 30.0787 20.222 30.0527 19.572C30.0007 17.648 27.5567 10.862 26.5687 10.862C26.1787 10.862 25.6327 11.746 25.0607 11.746C24.3847 11.746 23.8127 10.888 23.8647 10.264C24.0207 8.6 28.3887 5.688 29.8967 5.688C31.3527 5.688 31.8467 6.936 32.3407 8.08C33.0427 9.744 34.2647 14.32 34.9147 14.476C35.6168 14.632 35.9287 11.954 35.9287 11.434C35.9287 9.614 34.7327 9.146 34.7327 7.82C34.7327 6.598 35.8247 5.844 36.9687 5.844C39.0227 5.844 39.3088 7.664 39.3088 9.302Z" fill="#FE0084"/>
</svg>
