<svg width="111" height="24" viewBox="0 0 111 24" fill="none" xmlns="http://www.w3.org/2000/svg">
<path d="M19.384 7.534C19.384 12.474 16.42 16.504 13.196 18.012C13.586 18.87 15.51 19.13 15.848 19.13C16.966 19.13 17.382 18.506 18.084 18.506C18.708 18.506 19.15 19.312 19.15 19.858C19.15 22.51 15.822 23.68 13.638 23.68C10.674 23.68 8.932 22.25 6.618 20.56C5.916 20.04 4.772 19.234 3.888 19.234C2.952 19.234 2.354 19.832 1.574 19.832C0.742 19.832 0.352 19.078 0.352 18.324C0.352 17.466 0.898 16.998 1.574 16.608C0.586 15.308 0.196 13.618 0.248 12.24C0.248 5.766 5.318 0.409999 11.688 0.409999C16.108 0.409999 19.384 2.932 19.384 7.534ZM8.906 16.01C11.688 16.01 12.39 9.068 12.39 7.066C12.39 6.052 12.312 3.634 10.726 3.764C7.944 3.764 7.242 10.706 7.242 12.708C7.242 13.722 7.32 16.14 8.906 16.01ZM35.126 8.106L34.242 13.124C34.164 13.514 34.086 13.93 34.086 14.32C34.086 14.892 34.372 15.1 34.892 15.1C35.49 15.126 35.802 15.1 35.802 15.802C35.802 17.804 31.46 19.182 29.874 19.182C28.21 19.182 28.99 16.868 28.08 16.868C27.508 16.868 25.298 19.286 22.594 19.182C21.138 19.13 20.332 18.194 20.28 16.504C20.228 15.048 20.826 12.916 21.034 11.122C21.112 10.446 21.294 9.848 20.436 9.744C19.916 9.692 19.344 9.614 19.344 8.938C19.344 7.898 20.8 7.144 21.58 6.78C22.854 6.182 24.362 5.714 25.766 5.714C26.754 5.714 27.092 6.234 27.092 7.196C27.092 8.21 26.572 10.68 26.338 12.032C26.286 12.37 25.636 14.944 26.754 14.944C27.586 14.944 28.184 13.904 28.47 13.28C29.536 10.836 29.042 7.56 30.212 6.598C30.94 5.948 32.786 5.688 33.748 5.688C34.554 5.688 35.256 5.922 35.256 6.806C35.256 7.144 35.152 7.768 35.126 8.106ZM45.7252 5.558C47.7792 5.558 49.5212 6.364 49.5212 8.652C49.5212 11.798 46.0112 14.242 43.0732 14.242C42.7092 14.242 42.0592 14.242 42.0592 14.788C42.0592 15.542 42.9952 15.958 43.6452 15.958C45.5172 15.958 46.9472 14.476 47.7792 14.476C48.3252 14.476 48.8192 15.048 48.8192 15.568C48.8192 16.946 47.0772 17.804 46.0112 18.298C44.5552 18.948 43.1512 19.338 41.5132 19.338C38.3412 19.338 35.5852 17.96 35.7152 14.476C35.9492 9.068 40.9932 5.558 45.7252 5.558ZM43.8012 8.132C42.7352 8.132 42.0072 10.55 42.0072 11.382C42.0072 11.694 42.1112 12.11 42.4752 12.11C43.2032 12.11 44.4772 10.186 44.3992 8.938C44.3732 8.6 44.2172 8.132 43.8012 8.132ZM60.7644 7.742C60.7644 8.522 60.2964 9.64 59.3864 9.64C58.3464 9.64 58.3464 8.132 57.3584 8.132C56.9164 8.132 56.5524 8.444 56.5524 8.886C56.5524 10.576 60.2704 11.824 60.2704 14.944C60.2704 18.168 56.4744 19.338 53.8484 19.338C52.1844 19.338 49.1164 18.87 49.1164 16.686C49.1164 15.906 49.6104 14.84 50.4944 14.84C51.5864 14.84 51.4044 16.582 52.7044 16.582C53.2244 16.582 53.8224 16.296 53.8224 15.724C53.8224 14.346 50.5724 12.994 50.5724 10.082C50.5724 6.962 54.1344 5.558 56.8124 5.558C58.1644 5.558 60.7644 6 60.7644 7.742ZM67.9061 10.654L67.5681 13.228C67.3081 14.372 67.6461 15.074 68.2961 15.074C68.9201 15.074 69.3881 14.58 69.7781 14.58C70.3241 14.58 70.4801 15.074 70.4801 15.516C70.4801 17.544 65.5401 19.208 64.0321 19.208C62.4721 19.208 61.4321 18.454 61.4321 16.79C61.4321 15.958 61.5621 15.126 61.6921 14.32L62.4721 9.744C62.6541 8.73 62.5761 8.6 61.5361 8.6C60.9121 8.6 60.5741 8.418 60.5741 7.716C60.5741 6.598 61.1201 5.974 62.2121 5.87C63.0441 5.766 63.1221 5.506 63.4861 4.31C63.7201 3.53 64.0061 2.776 64.7081 2.438C65.6181 1.996 66.9441 1.866 67.9581 1.866C68.6081 1.866 68.9461 2.152 68.9461 2.828C68.8941 3.348 68.7121 4.83 68.7121 5.246C68.7121 6.026 69.5701 5.766 70.3501 5.766C70.6881 5.766 71.0001 5.844 71.0001 6.234C71.0001 6.598 70.9221 7.014 70.8701 7.352C70.7921 7.924 70.7921 8.47 70.0901 8.47C68.2961 8.47 68.2961 8.392 67.9061 10.654ZM71.6202 16.036L72.2962 11.616C72.4002 11.018 72.5302 10.524 72.5302 10.186C72.5302 9.848 72.4002 9.666 71.9582 9.666C71.5682 9.666 70.9442 9.692 70.9442 8.756C70.9442 7.638 72.1402 7.144 72.9982 6.78C74.2202 6.26 76.1962 5.688 77.5222 5.688C78.3282 5.688 78.6922 6.104 78.6922 6.884C78.6922 8.002 78.3022 10.212 78.2502 10.576C78.1982 10.862 77.7302 13.852 77.6002 14.866C77.5482 15.36 77.8862 15.36 78.3022 15.36C78.7962 15.36 79.1602 15.386 79.1602 16.01C79.1602 17.986 75.0522 19.182 73.5702 19.182C72.5822 19.182 71.4642 18.584 71.4642 17.492C71.4642 16.998 71.5422 16.53 71.6202 16.036ZM74.4542 4.622C73.5702 4.57 72.1402 4.336 72.1402 3.192C72.1402 1.112 75.8582 0.0459992 77.5222 0.0459992C78.4582 0.0459992 79.7062 0.409999 79.6802 1.528C79.6542 3.426 76.0142 4.726 74.4542 4.622ZM85.1693 19.338C81.9193 19.338 79.2413 17.596 79.2413 14.19C79.2413 9.224 83.1413 5.558 88.0813 5.558C91.3313 5.558 94.0093 7.3 94.0093 10.706C94.0093 15.672 90.1093 19.338 85.1693 19.338ZM87.2233 8.314C86.1313 8.314 85.8713 9.978 85.6893 10.784C85.4033 12.188 85.1693 13.956 85.1693 15.386C85.1693 15.984 85.3253 16.582 86.0013 16.582C87.0933 16.582 87.3013 15.022 87.4573 14.242C87.7173 12.916 88.0813 10.914 88.0813 9.588C88.0813 8.99 87.9513 8.314 87.2233 8.314ZM103.69 13.072L104.002 10.758C104.002 10.29 103.768 9.926 103.274 9.926C101.376 9.926 101.038 13.878 100.882 15.464C100.622 18.324 100.05 19 96.6958 19.182C95.7598 19.234 94.7978 18.974 94.7978 17.83C94.7978 16.53 95.9938 12.63 95.9158 10.368C95.9158 9.848 95.7338 9.536 95.1878 9.536H94.9278C94.4078 9.536 94.1998 9.224 94.1998 8.704C94.1998 7.976 94.9538 7.456 95.5258 7.144C96.6178 6.494 99.0098 5.714 100.258 5.714C101.844 5.714 101.142 8.002 101.948 8.002C102.598 8.002 104.73 5.688 106.992 5.688C108.5 5.688 109.956 6.572 109.956 8.21C109.956 10.056 109.046 13.176 109.046 14.762C109.046 15.802 110.294 15.152 110.294 16.166C110.294 18.064 106.368 19.182 104.886 19.182C103.742 19.182 103.014 18.61 103.014 17.44C103.014 16.114 103.482 14.424 103.69 13.072Z" fill="#FE0084"/>
</svg>
