<svg width="17" height="17" viewBox="0 0 17 17" fill="none" xmlns="http://www.w3.org/2000/svg">
<path fill-rule="evenodd" clip-rule="evenodd" d="M4.95835 4.25C4.95835 2.29399 6.54401 0.708336 8.50002 0.708336C10.456 0.708336 12.0417 2.29399 12.0417 4.25C12.0417 6.20601 10.456 7.79167 8.50002 7.79167C6.54401 7.79167 4.95835 6.20601 4.95835 4.25ZM8.50002 2.125C7.32642 2.125 6.37502 3.0764 6.37502 4.25C6.37502 5.42361 7.32642 6.375 8.50002 6.375C9.67363 6.375 10.625 5.42361 10.625 4.25C10.625 3.0764 9.67363 2.125 8.50002 2.125Z" fill="#FE0084"/>
<path d="M2.8772 14.875C3.22576 12.0797 5.61029 9.91667 8.50002 9.91667C8.80471 9.91667 9.10331 9.94065 9.39416 9.98671L10.0938 10.0975L10.3153 8.69826L9.61572 8.58747C9.25186 8.52986 8.87918 8.5 8.50002 8.5C4.588 8.5 1.41669 11.6713 1.41669 15.5833V16.2917H10.0519V14.875H2.8772Z" fill="#FE0084"/>
<path fill-rule="evenodd" clip-rule="evenodd" d="M13.4583 9.59111L13.9743 10.1397C14.352 10.5413 14.802 10.7431 15.3178 10.7431H16.2917V12.3235C16.2917 14.1393 15.2423 15.7786 13.6655 16.2607L13.4584 16.324L13.2512 16.2607C11.6744 15.7786 10.625 14.1393 10.625 12.3235L10.6251 10.7431H11.599C12.1148 10.7431 12.5647 10.5413 12.9424 10.1397L13.4583 9.59111ZM12.0417 12.1302L12.0417 12.3235C12.0417 13.538 12.6813 14.4782 13.4584 14.8278C14.2354 14.4782 14.875 13.538 14.875 12.3235V12.1304C14.3534 12.0597 13.8766 11.8636 13.4583 11.5638C13.0401 11.8636 12.5633 12.0594 12.0417 12.1302Z" fill="#FE0084"/>
</svg>
